<?xml version="1.0" encoding="utf-8"?>
<svg viewBox="0 0 500 500" xmlns="http://www.w3.org/2000/svg">
  <g id="on_black" transform="matrix(0.6733660697937012, 0, 0, 0.8276129961013794, -712.2276000976562, -9.575738906860352)" style="">
    <path class="st0" d="M 1313.229 596.88 C 1262.229 596.78 1220.929 555.48 1220.829 504.48 L 1220.829 421.88 L 1321.829 421.88 L 1321.829 480.88 C 1321.829 493.58 1332.129 503.88 1344.829 503.88 L 1504.829 503.88 C 1517.529 503.88 1527.829 493.58 1527.829 480.88 L 1527.829 408.58 C 1527.829 384.48 1516.629 377.68 1493.129 372.28 L 1337.129 338.68 C 1297.629 330.18 1270.829 318.68 1252.829 302.48 C 1232.629 284.38 1222.829 259.28 1222.829 225.78 L 1222.829 118.28 C 1222.929 67.28 1264.229 25.98 1315.229 25.88 L 1530.429 25.88 C 1581.429 25.98 1622.729 67.28 1622.829 118.28 L 1622.829 193.88 L 1521.829 193.88 L 1521.829 141.88 C 1521.829 129.18 1511.529 118.88 1498.829 118.88 L 1350.829 118.88 C 1338.129 118.88 1327.829 129.18 1327.829 141.88 L 1327.829 207.38 C 1327.829 231.48 1339.029 238.28 1362.529 243.68 L 1518.529 277.28 C 1558.029 285.78 1584.829 297.28 1602.829 313.48 C 1623.029 331.58 1632.829 356.68 1632.829 390.18 L 1632.829 504.48 C 1632.729 555.48 1591.429 596.78 1540.429 596.88 L 1313.229 596.88 Z" style="fill-rule: nonzero;"/>
  </g>
</svg>